<svg xmlns="http://www.w3.org/2000/svg" viewBox="0 0 64 64" width="64" height="64">
  <!-- folder back -->
  <rect x="4" y="6" width="56" height="54" rx="15" fill="#1c3d2f"/>
  <!-- back documents, fanned -->
  <rect x="20" y="16" width="24" height="34" rx="4" fill="#e7dec9" transform="rotate(-12 32 50)"/>
  <rect x="20" y="16" width="24" height="34" rx="4" fill="#e7dec9" transform="rotate(12 32 50)"/>
  <!-- front document -->
  <rect x="19" y="14" width="26" height="36" rx="4" fill="#f4ede0"/>
  <rect x="24" y="21" width="14" height="2.6" rx="1.3" fill="#1c3d2f" opacity="0.22"/>
  <rect x="24" y="26.5" width="9" height="2.6" rx="1.3" fill="#1c3d2f" opacity="0.22"/>
  <!-- folder front pocket -->
  <path d="M4 40 L60 40 L60 45 A15 15 0 0 1 45 60 L19 60 A15 15 0 0 1 4 45 Z" fill="#2c5340"/>
</svg>
